<svg id="Layer_1" data-name="Layer 1" xmlns="http://www.w3.org/2000/svg" xmlns:xlink="http://www.w3.org/1999/xlink" viewBox="0 0 198 198"><defs><style>.cls-1{fill:url(#radial-gradient);}.cls-2{fill:url(#radial-gradient-2);}.cls-3{fill:url(#radial-gradient-3);}.cls-4{fill:url(#radial-gradient-4);}.cls-5{fill:url(#radial-gradient-5);}.cls-6{fill:url(#radial-gradient-6);}.cls-7{fill:url(#radial-gradient-7);}.cls-8{fill:url(#radial-gradient-8);}.cls-9{fill:url(#radial-gradient-9);}.cls-10{fill:url(#radial-gradient-10);}.cls-11{fill:url(#radial-gradient-11);}</style><radialGradient id="radial-gradient" cx="67.68" cy="80.84" fx="0.7195884734150866" fy="48.822929207131764" r="74.22" gradientUnits="userSpaceOnUse"><stop offset="0.07" stop-color="gold"/><stop offset="1" stop-color="#daa520"/></radialGradient><radialGradient id="radial-gradient-2" cx="125.6" cy="85.5" r="12.9" gradientUnits="userSpaceOnUse"><stop offset="0.07" stop-color="#736357"/><stop offset="1" stop-color="#333"/></radialGradient><radialGradient id="radial-gradient-3" cx="65.6" cy="119.5" r="12.9" xlink:href="#radial-gradient-2"/><radialGradient id="radial-gradient-4" cx="74.6" cy="82.5" r="12.9" xlink:href="#radial-gradient-2"/><radialGradient id="radial-gradient-5" cx="93.6" cy="130.5" r="12.9" xlink:href="#radial-gradient-2"/><radialGradient id="radial-gradient-6" cx="130.39" cy="114.15" r="12.9" gradientTransform="translate(-5.76 2.37)" xlink:href="#radial-gradient-2"/><radialGradient id="radial-gradient-7" cx="101.6" cy="70.5" r="12.9" xlink:href="#radial-gradient-2"/><radialGradient id="radial-gradient-8" cx="92.6" cy="103.5" r="12.9" xlink:href="#radial-gradient-2"/><radialGradient id="radial-gradient-9" cx="49.6" cy="95.5" r="12.9" xlink:href="#radial-gradient-2"/><radialGradient id="radial-gradient-10" cx="108.6" cy="91.5" r="12.9" xlink:href="#radial-gradient-2"/><radialGradient id="radial-gradient-11" cx="76.6" cy="54.5" r="12.9" xlink:href="#radial-gradient-2"/></defs><title>11</title><circle class="cls-1" cx="99" cy="99" r="99"/><circle class="cls-2" cx="128" cy="87" r="15"/><circle class="cls-3" cx="68" cy="121" r="15"/><circle class="cls-4" cx="77" cy="84" r="15"/><circle class="cls-5" cx="96" cy="132" r="15"/><circle class="cls-6" cx="127.03" cy="118.02" r="15"/><circle class="cls-7" cx="104" cy="72" r="15"/><circle class="cls-8" cx="95" cy="105" r="15"/><circle class="cls-9" cx="52" cy="97" r="15"/><circle class="cls-10" cx="111" cy="93" r="15"/><circle class="cls-11" cx="79" cy="56" r="15"/></svg>