<svg id="Layer_1" data-name="Layer 1" xmlns="http://www.w3.org/2000/svg" xmlns:xlink="http://www.w3.org/1999/xlink" viewBox="0 0 198 198"><defs><style>.cls-1{fill:url(#radial-gradient);}.cls-2{fill:url(#radial-gradient-2);}.cls-3{fill:url(#radial-gradient-3);}.cls-4{fill:url(#radial-gradient-4);}.cls-5{fill:url(#radial-gradient-5);}.cls-6{fill:url(#radial-gradient-6);}.cls-7{fill:url(#radial-gradient-7);}.cls-8{fill:url(#radial-gradient-8);}.cls-9{fill:url(#radial-gradient-9);}.cls-10{fill:url(#radial-gradient-10);}.cls-11{fill:url(#radial-gradient-11);}.cls-12{fill:url(#radial-gradient-12);}.cls-13{fill:url(#radial-gradient-13);}</style><radialGradient id="radial-gradient" cx="67.68" cy="80.84" fx="0.7195884734150866" fy="48.822929207131764" r="74.22" gradientUnits="userSpaceOnUse"><stop offset="0.07" stop-color="gold"/><stop offset="1" stop-color="#daa520"/></radialGradient><radialGradient id="radial-gradient-2" cx="135.6" cy="95.5" r="12.9" gradientUnits="userSpaceOnUse"><stop offset="0.07" stop-color="#736357"/><stop offset="1" stop-color="#333"/></radialGradient><radialGradient id="radial-gradient-3" cx="72.6" cy="127.5" r="12.9" xlink:href="#radial-gradient-2"/><radialGradient id="radial-gradient-4" cx="86.6" cy="92.5" r="12.9" xlink:href="#radial-gradient-2"/><radialGradient id="radial-gradient-5" cx="100.6" cy="135.5" r="12.9" xlink:href="#radial-gradient-2"/><radialGradient id="radial-gradient-6" cx="127.39" cy="115.15" r="12.9" gradientTransform="translate(-5.76 2.37)" xlink:href="#radial-gradient-2"/><radialGradient id="radial-gradient-7" cx="122.6" cy="69.5" r="12.9" xlink:href="#radial-gradient-2"/><radialGradient id="radial-gradient-8" cx="93.6" cy="111.5" r="12.9" xlink:href="#radial-gradient-2"/><radialGradient id="radial-gradient-9" cx="58.6" cy="100.5" r="12.9" xlink:href="#radial-gradient-2"/><radialGradient id="radial-gradient-10" cx="109.6" cy="86.5" r="12.9" xlink:href="#radial-gradient-2"/><radialGradient id="radial-gradient-11" cx="93.6" cy="60.5" r="12.9" xlink:href="#radial-gradient-2"/><radialGradient id="radial-gradient-12" cx="65.6" cy="71.5" r="12.9" xlink:href="#radial-gradient-2"/><radialGradient id="radial-gradient-13" cx="79.6" cy="74.5" r="12.9" xlink:href="#radial-gradient-2"/></defs><title>12</title><circle class="cls-1" cx="99" cy="99" r="99"/><circle class="cls-2" cx="138" cy="97" r="15"/><circle class="cls-3" cx="75" cy="129" r="15"/><circle class="cls-4" cx="89" cy="94" r="15"/><circle class="cls-5" cx="103" cy="137" r="15"/><circle class="cls-6" cx="124.03" cy="119.02" r="15"/><circle class="cls-7" cx="125" cy="71" r="15"/><circle class="cls-8" cx="96" cy="113" r="15"/><circle class="cls-9" cx="61" cy="102" r="15"/><circle class="cls-10" cx="112" cy="88" r="15"/><circle class="cls-11" cx="96" cy="62" r="15"/><circle class="cls-12" cx="68" cy="73" r="15"/><circle class="cls-13" cx="82" cy="76" r="15"/></svg>