<svg id="Layer_1" data-name="Layer 1" xmlns="http://www.w3.org/2000/svg" xmlns:xlink="http://www.w3.org/1999/xlink" viewBox="0 0 198 198"><defs><style>.cls-1{fill:url(#radial-gradient);}.cls-2{fill:url(#radial-gradient-2);}.cls-3{fill:url(#radial-gradient-3);}.cls-4{fill:url(#radial-gradient-4);}.cls-5{fill:url(#radial-gradient-5);}.cls-6{fill:url(#radial-gradient-6);}.cls-7{fill:url(#radial-gradient-7);}.cls-8{fill:url(#radial-gradient-8);}.cls-9{fill:url(#radial-gradient-9);}.cls-10{fill:url(#radial-gradient-10);}.cls-11{fill:url(#radial-gradient-11);}.cls-12{fill:url(#radial-gradient-12);}.cls-13{fill:url(#radial-gradient-13);}.cls-14{fill:url(#radial-gradient-14);}</style><radialGradient id="radial-gradient" cx="67.68" cy="80.84" fx="0.7195884734150866" fy="48.822929207131764" r="74.22" gradientUnits="userSpaceOnUse"><stop offset="0.07" stop-color="gold"/><stop offset="1" stop-color="#daa520"/></radialGradient><radialGradient id="radial-gradient-2" cx="136.6" cy="94.5" r="12.9" gradientUnits="userSpaceOnUse"><stop offset="0.07" stop-color="#736357"/><stop offset="1" stop-color="#333"/></radialGradient><radialGradient id="radial-gradient-3" cx="71.6" cy="127.5" r="12.9" xlink:href="#radial-gradient-2"/><radialGradient id="radial-gradient-4" cx="89.6" cy="92.5" r="12.9" xlink:href="#radial-gradient-2"/><radialGradient id="radial-gradient-5" cx="98.6" cy="137.5" r="12.9" xlink:href="#radial-gradient-2"/><radialGradient id="radial-gradient-6" cx="129.39" cy="118.15" r="12.9" gradientTransform="translate(-5.76 2.37)" xlink:href="#radial-gradient-2"/><radialGradient id="radial-gradient-7" cx="122.6" cy="69.5" r="12.9" xlink:href="#radial-gradient-2"/><radialGradient id="radial-gradient-8" cx="58.6" cy="100.5" r="12.9" xlink:href="#radial-gradient-2"/><radialGradient id="radial-gradient-9" cx="93.6" cy="60.5" r="12.9" xlink:href="#radial-gradient-2"/><radialGradient id="radial-gradient-10" cx="65.6" cy="71.5" r="12.9" xlink:href="#radial-gradient-2"/><radialGradient id="radial-gradient-11" cx="81.6" cy="82.5" r="12.9" xlink:href="#radial-gradient-2"/><radialGradient id="radial-gradient-12" cx="112.6" cy="75.5" r="12.9" xlink:href="#radial-gradient-2"/><radialGradient id="radial-gradient-13" cx="113.6" cy="104.5" r="12.9" xlink:href="#radial-gradient-2"/><radialGradient id="radial-gradient-14" cx="84.6" cy="112.5" r="12.9" xlink:href="#radial-gradient-2"/></defs><title>13</title><circle class="cls-1" cx="99" cy="99" r="99"/><circle class="cls-2" cx="139" cy="96" r="15"/><circle class="cls-3" cx="74" cy="129" r="15"/><circle class="cls-4" cx="92" cy="94" r="15"/><circle class="cls-5" cx="101" cy="139" r="15"/><circle class="cls-6" cx="126.03" cy="122.02" r="15"/><circle class="cls-7" cx="125" cy="71" r="15"/><circle class="cls-8" cx="61" cy="102" r="15"/><circle class="cls-9" cx="96" cy="62" r="15"/><circle class="cls-10" cx="68" cy="73" r="15"/><circle class="cls-11" cx="84" cy="84" r="15"/><circle class="cls-12" cx="115" cy="77" r="15"/><circle class="cls-13" cx="116" cy="106" r="15"/><circle class="cls-14" cx="87" cy="114" r="15"/></svg>