<svg id="Layer_1" data-name="Layer 1" xmlns="http://www.w3.org/2000/svg" xmlns:xlink="http://www.w3.org/1999/xlink" viewBox="0 0 198 198"><defs><style>.cls-1{fill:url(#radial-gradient);}.cls-2{fill:url(#radial-gradient-2);}.cls-3{fill:url(#radial-gradient-3);}.cls-4{fill:url(#radial-gradient-4);}.cls-5{fill:url(#radial-gradient-5);}.cls-6{fill:url(#radial-gradient-6);}.cls-7{fill:url(#radial-gradient-7);}.cls-8{fill:url(#radial-gradient-8);}.cls-9{fill:url(#radial-gradient-9);}.cls-10{fill:url(#radial-gradient-10);}.cls-11{fill:url(#radial-gradient-11);}.cls-12{fill:url(#radial-gradient-12);}.cls-13{fill:url(#radial-gradient-13);}.cls-14{fill:url(#radial-gradient-14);}.cls-15{fill:url(#radial-gradient-15);}</style><radialGradient id="radial-gradient" cx="67.68" cy="80.84" fx="0.7195884734150866" fy="48.822929207131764" r="74.22" gradientUnits="userSpaceOnUse"><stop offset="0.07" stop-color="gold"/><stop offset="1" stop-color="#daa520"/></radialGradient><radialGradient id="radial-gradient-2" cx="136.6" cy="94.5" r="12.9" gradientUnits="userSpaceOnUse"><stop offset="0.07" stop-color="#736357"/><stop offset="1" stop-color="#333"/></radialGradient><radialGradient id="radial-gradient-3" cx="61.6" cy="132.5" r="12.9" xlink:href="#radial-gradient-2"/><radialGradient id="radial-gradient-4" cx="89.6" cy="92.5" r="12.9" xlink:href="#radial-gradient-2"/><radialGradient id="radial-gradient-5" cx="89.6" cy="144.5" r="12.9" xlink:href="#radial-gradient-2"/><radialGradient id="radial-gradient-6" cx="118.36" cy="107.13" r="12.9" gradientTransform="translate(-5.76 2.37)" xlink:href="#radial-gradient-2"/><radialGradient id="radial-gradient-7" cx="122.6" cy="69.5" r="12.9" xlink:href="#radial-gradient-2"/><radialGradient id="radial-gradient-8" cx="58.6" cy="100.5" r="12.9" xlink:href="#radial-gradient-2"/><radialGradient id="radial-gradient-9" cx="93.6" cy="60.5" r="12.9" xlink:href="#radial-gradient-2"/><radialGradient id="radial-gradient-10" cx="65.6" cy="71.5" r="12.9" xlink:href="#radial-gradient-2"/><radialGradient id="radial-gradient-11" cx="140.6" cy="119.5" r="12.9" xlink:href="#radial-gradient-2"/><radialGradient id="radial-gradient-12" cx="85.6" cy="117.5" r="12.9" xlink:href="#radial-gradient-2"/><radialGradient id="radial-gradient-13" cx="116.6" cy="139.5" r="12.9" xlink:href="#radial-gradient-2"/><radialGradient id="radial-gradient-14" cx="74.6" cy="86.5" r="12.9" xlink:href="#radial-gradient-2"/><radialGradient id="radial-gradient-15" cx="111.6" cy="84.5" r="12.9" xlink:href="#radial-gradient-2"/></defs><title>14</title><circle class="cls-1" cx="99" cy="99" r="99"/><circle class="cls-2" cx="139" cy="96" r="15"/><circle class="cls-3" cx="64" cy="134" r="15"/><circle class="cls-4" cx="92" cy="94" r="15"/><circle class="cls-5" cx="92" cy="146" r="15"/><circle class="cls-6" cx="115" cy="111" r="15"/><circle class="cls-7" cx="125" cy="71" r="15"/><circle class="cls-8" cx="61" cy="102" r="15"/><circle class="cls-9" cx="96" cy="62" r="15"/><circle class="cls-10" cx="68" cy="73" r="15"/><circle class="cls-11" cx="143" cy="121" r="15"/><circle class="cls-12" cx="88" cy="119" r="15"/><circle class="cls-13" cx="119" cy="141" r="15"/><circle class="cls-14" cx="77" cy="88" r="15"/><circle class="cls-15" cx="114" cy="86" r="15"/></svg>