<svg id="Layer_1" data-name="Layer 1" xmlns="http://www.w3.org/2000/svg" xmlns:xlink="http://www.w3.org/1999/xlink" viewBox="0 0 198 198"><defs><style>.cls-1{fill:url(#radial-gradient);}.cls-2{fill:url(#radial-gradient-2);}.cls-3{fill:url(#radial-gradient-3);}.cls-4{fill:url(#radial-gradient-4);}.cls-5{fill:url(#radial-gradient-5);}.cls-6{fill:url(#radial-gradient-6);}.cls-7{fill:url(#radial-gradient-7);}.cls-8{fill:url(#radial-gradient-8);}.cls-9{fill:url(#radial-gradient-9);}.cls-10{fill:url(#radial-gradient-10);}.cls-11{fill:url(#radial-gradient-11);}.cls-12{fill:url(#radial-gradient-12);}.cls-13{fill:url(#radial-gradient-13);}.cls-14{fill:url(#radial-gradient-14);}.cls-15{fill:url(#radial-gradient-15);}.cls-16{fill:url(#radial-gradient-16);}</style><radialGradient id="radial-gradient" cx="67.68" cy="80.84" fx="0.7195884734150866" fy="48.822929207131764" r="74.22" gradientUnits="userSpaceOnUse"><stop offset="0.07" stop-color="gold"/><stop offset="1" stop-color="#daa520"/></radialGradient><radialGradient id="radial-gradient-2" cx="133.6" cy="89.5" r="12.9" gradientUnits="userSpaceOnUse"><stop offset="0.07" stop-color="#736357"/><stop offset="1" stop-color="#333"/></radialGradient><radialGradient id="radial-gradient-3" cx="61.6" cy="123.5" r="12.9" xlink:href="#radial-gradient-2"/><radialGradient id="radial-gradient-4" cx="86.6" cy="93.5" r="12.9" xlink:href="#radial-gradient-2"/><radialGradient id="radial-gradient-5" cx="86.6" cy="139.5" r="12.9" xlink:href="#radial-gradient-2"/><radialGradient id="radial-gradient-6" cx="119.6" cy="64.5" r="12.9" xlink:href="#radial-gradient-2"/><radialGradient id="radial-gradient-7" cx="55.6" cy="95.5" r="12.9" xlink:href="#radial-gradient-2"/><radialGradient id="radial-gradient-8" cx="90.6" cy="55.5" r="12.9" xlink:href="#radial-gradient-2"/><radialGradient id="radial-gradient-9" cx="62.6" cy="66.5" r="12.9" xlink:href="#radial-gradient-2"/><radialGradient id="radial-gradient-10" cx="137.6" cy="114.5" r="12.9" xlink:href="#radial-gradient-2"/><radialGradient id="radial-gradient-11" cx="70.6" cy="105.5" r="12.9" xlink:href="#radial-gradient-2"/><radialGradient id="radial-gradient-12" cx="113.6" cy="134.5" r="12.9" xlink:href="#radial-gradient-2"/><radialGradient id="radial-gradient-13" cx="78.6" cy="77.5" r="12.9" xlink:href="#radial-gradient-2"/><radialGradient id="radial-gradient-14" cx="106.6" cy="86.5" r="12.9" xlink:href="#radial-gradient-2"/><radialGradient id="radial-gradient-15" cx="133.36" cy="106.13" r="12.9" gradientTransform="translate(-5.76 2.37)" xlink:href="#radial-gradient-2"/><radialGradient id="radial-gradient-16" cx="104.36" cy="113.13" r="12.9" gradientTransform="translate(-5.76 2.37)" xlink:href="#radial-gradient-2"/></defs><title>15</title><circle class="cls-1" cx="99" cy="99" r="99"/><circle class="cls-2" cx="136" cy="91" r="15"/><circle class="cls-3" cx="64" cy="125" r="15"/><circle class="cls-4" cx="89" cy="95" r="15"/><circle class="cls-5" cx="89" cy="141" r="15"/><circle class="cls-6" cx="122" cy="66" r="15"/><circle class="cls-7" cx="58" cy="97" r="15"/><circle class="cls-8" cx="93" cy="57" r="15"/><circle class="cls-9" cx="65" cy="68" r="15"/><circle class="cls-10" cx="140" cy="116" r="15"/><circle class="cls-11" cx="73" cy="107" r="15"/><circle class="cls-12" cx="116" cy="136" r="15"/><circle class="cls-13" cx="81" cy="79" r="15"/><circle class="cls-14" cx="109" cy="88" r="15"/><circle class="cls-15" cx="130" cy="110" r="15"/><circle class="cls-16" cx="101" cy="117" r="15"/></svg>