<svg id="Layer_1" data-name="Layer 1" xmlns="http://www.w3.org/2000/svg" xmlns:xlink="http://www.w3.org/1999/xlink" viewBox="0 0 198 198"><defs><style>.cls-1{fill:url(#radial-gradient);}.cls-2{fill:url(#radial-gradient-2);}.cls-3{fill:url(#radial-gradient-3);}.cls-4{fill:url(#radial-gradient-4);}.cls-5{fill:url(#radial-gradient-5);}.cls-6{fill:url(#radial-gradient-6);}.cls-7{fill:url(#radial-gradient-7);}.cls-8{fill:url(#radial-gradient-8);}.cls-9{fill:url(#radial-gradient-9);}.cls-10{fill:url(#radial-gradient-10);}.cls-11{fill:url(#radial-gradient-11);}.cls-12{fill:url(#radial-gradient-12);}.cls-13{fill:url(#radial-gradient-13);}.cls-14{fill:url(#radial-gradient-14);}.cls-15{fill:url(#radial-gradient-15);}.cls-16{fill:url(#radial-gradient-16);}.cls-17{fill:url(#radial-gradient-17);}.cls-18{fill:url(#radial-gradient-18);}</style><radialGradient id="radial-gradient" cx="67.68" cy="80.84" fx="0.7195884734150866" fy="48.822929207131764" r="74.22" gradientUnits="userSpaceOnUse"><stop offset="0.07" stop-color="gold"/><stop offset="1" stop-color="#daa520"/></radialGradient><radialGradient id="radial-gradient-2" cx="142.6" cy="83.5" r="12.9" gradientUnits="userSpaceOnUse"><stop offset="0.07" stop-color="#736357"/><stop offset="1" stop-color="#333"/></radialGradient><radialGradient id="radial-gradient-3" cx="51.6" cy="118.5" r="12.9" xlink:href="#radial-gradient-2"/><radialGradient id="radial-gradient-4" cx="104.6" cy="88.5" r="12.9" xlink:href="#radial-gradient-2"/><radialGradient id="radial-gradient-5" cx="104.6" cy="119.5" r="12.9" xlink:href="#radial-gradient-2"/><radialGradient id="radial-gradient-6" cx="123.6" cy="53.5" r="12.9" xlink:href="#radial-gradient-2"/><radialGradient id="radial-gradient-7" cx="53.6" cy="88.5" r="12.9" xlink:href="#radial-gradient-2"/><radialGradient id="radial-gradient-8" cx="91.6" cy="46.5" r="12.9" xlink:href="#radial-gradient-2"/><radialGradient id="radial-gradient-9" cx="66.6" cy="62.5" r="12.9" xlink:href="#radial-gradient-2"/><radialGradient id="radial-gradient-10" cx="130.6" cy="107.5" r="12.9" xlink:href="#radial-gradient-2"/><radialGradient id="radial-gradient-11" cx="72.6" cy="100.5" r="12.9" xlink:href="#radial-gradient-2"/><radialGradient id="radial-gradient-12" cx="130.6" cy="137.5" r="12.9" xlink:href="#radial-gradient-2"/><radialGradient id="radial-gradient-13" cx="80.6" cy="71.5" r="12.9" xlink:href="#radial-gradient-2"/><radialGradient id="radial-gradient-14" cx="107.6" cy="62.5" r="12.9" xlink:href="#radial-gradient-2"/><radialGradient id="radial-gradient-15" cx="130.6" cy="80.5" r="12.9" xlink:href="#radial-gradient-2"/><radialGradient id="radial-gradient-16" cx="107.36" cy="99.13" r="12.9" gradientTransform="translate(-5.76 2.37)" xlink:href="#radial-gradient-2"/><radialGradient id="radial-gradient-17" cx="106.36" cy="145.13" r="12.9" gradientTransform="translate(-5.76 2.37)" xlink:href="#radial-gradient-2"/><radialGradient id="radial-gradient-18" cx="82.36" cy="128.13" r="12.9" gradientTransform="translate(-5.76 2.37)" xlink:href="#radial-gradient-2"/></defs><title>17</title><circle class="cls-1" cx="99" cy="99" r="99"/><circle class="cls-2" cx="145" cy="85" r="15"/><circle class="cls-3" cx="54" cy="120" r="15"/><circle class="cls-4" cx="107" cy="90" r="15"/><circle class="cls-5" cx="107" cy="121" r="15"/><circle class="cls-6" cx="126" cy="55" r="15"/><circle class="cls-7" cx="56" cy="90" r="15"/><circle class="cls-8" cx="94" cy="48" r="15"/><circle class="cls-9" cx="69" cy="64" r="15"/><circle class="cls-10" cx="133" cy="109" r="15"/><circle class="cls-11" cx="75" cy="102" r="15"/><circle class="cls-12" cx="133" cy="139" r="15"/><circle class="cls-13" cx="83" cy="73" r="15"/><circle class="cls-14" cx="110" cy="64" r="15"/><circle class="cls-15" cx="133" cy="82" r="15"/><circle class="cls-16" cx="104" cy="103" r="15"/><circle class="cls-17" cx="103" cy="149" r="15"/><circle class="cls-18" cx="79" cy="132" r="15"/></svg>