<svg id="Layer_1" data-name="Layer 1" xmlns="http://www.w3.org/2000/svg" xmlns:xlink="http://www.w3.org/1999/xlink" viewBox="0 0 198 198"><defs><style>.cls-1{fill:url(#radial-gradient);}.cls-2{fill:url(#radial-gradient-2);}.cls-3{fill:url(#radial-gradient-3);}.cls-4{fill:url(#radial-gradient-4);}.cls-5{fill:url(#radial-gradient-5);}.cls-6{fill:url(#radial-gradient-6);}.cls-7{fill:url(#radial-gradient-7);}.cls-8{fill:url(#radial-gradient-8);}.cls-9{fill:url(#radial-gradient-9);}.cls-10{fill:url(#radial-gradient-10);}.cls-11{fill:url(#radial-gradient-11);}.cls-12{fill:url(#radial-gradient-12);}.cls-13{fill:url(#radial-gradient-13);}.cls-14{fill:url(#radial-gradient-14);}.cls-15{fill:url(#radial-gradient-15);}.cls-16{fill:url(#radial-gradient-16);}.cls-17{fill:url(#radial-gradient-17);}.cls-18{fill:url(#radial-gradient-18);}.cls-19{fill:url(#radial-gradient-19);}</style><radialGradient id="radial-gradient" cx="67.68" cy="80.84" fx="0.7195884734150866" fy="48.822929207131764" r="74.22" gradientUnits="userSpaceOnUse"><stop offset="0.07" stop-color="gold"/><stop offset="1" stop-color="#daa520"/></radialGradient><radialGradient id="radial-gradient-2" cx="138.6" cy="83.5" r="12.9" gradientUnits="userSpaceOnUse"><stop offset="0.07" stop-color="#736357"/><stop offset="1" stop-color="#333"/></radialGradient><radialGradient id="radial-gradient-3" cx="51.6" cy="118.5" r="12.9" xlink:href="#radial-gradient-2"/><radialGradient id="radial-gradient-4" cx="100.6" cy="88.5" r="12.9" xlink:href="#radial-gradient-2"/><radialGradient id="radial-gradient-5" cx="92.6" cy="117.5" r="12.9" xlink:href="#radial-gradient-2"/><radialGradient id="radial-gradient-6" cx="119.6" cy="53.5" r="12.9" xlink:href="#radial-gradient-2"/><radialGradient id="radial-gradient-7" cx="49.6" cy="88.5" r="12.9" xlink:href="#radial-gradient-2"/><radialGradient id="radial-gradient-8" cx="87.6" cy="46.5" r="12.9" xlink:href="#radial-gradient-2"/><radialGradient id="radial-gradient-9" cx="62.6" cy="62.5" r="12.9" xlink:href="#radial-gradient-2"/><radialGradient id="radial-gradient-10" cx="144.6" cy="113.5" r="12.9" xlink:href="#radial-gradient-2"/><radialGradient id="radial-gradient-11" cx="68.6" cy="100.5" r="12.9" xlink:href="#radial-gradient-2"/><radialGradient id="radial-gradient-12" cx="119.6" cy="128.5" r="12.9" xlink:href="#radial-gradient-2"/><radialGradient id="radial-gradient-13" cx="76.6" cy="71.5" r="12.9" xlink:href="#radial-gradient-2"/><radialGradient id="radial-gradient-14" cx="103.6" cy="62.5" r="12.9" xlink:href="#radial-gradient-2"/><radialGradient id="radial-gradient-15" cx="126.6" cy="80.5" r="12.9" xlink:href="#radial-gradient-2"/><radialGradient id="radial-gradient-16" cx="133.36" cy="102.13" r="12.9" gradientTransform="translate(-5.76 2.37)" xlink:href="#radial-gradient-2"/><radialGradient id="radial-gradient-17" cx="103.36" cy="99.13" r="12.9" gradientTransform="translate(-5.76 2.37)" xlink:href="#radial-gradient-2"/><radialGradient id="radial-gradient-18" cx="102.36" cy="145.13" r="12.9" gradientTransform="translate(-5.76 2.37)" xlink:href="#radial-gradient-2"/><radialGradient id="radial-gradient-19" cx="76.36" cy="135.13" r="12.9" gradientTransform="translate(-5.76 2.37)" xlink:href="#radial-gradient-2"/></defs><title>18</title><circle class="cls-1" cx="99" cy="99" r="99"/><circle class="cls-2" cx="141" cy="85" r="15"/><circle class="cls-3" cx="54" cy="120" r="15"/><circle class="cls-4" cx="103" cy="90" r="15"/><circle class="cls-5" cx="95" cy="119" r="15"/><circle class="cls-6" cx="122" cy="55" r="15"/><circle class="cls-7" cx="52" cy="90" r="15"/><circle class="cls-8" cx="90" cy="48" r="15"/><circle class="cls-9" cx="65" cy="64" r="15"/><circle class="cls-10" cx="147" cy="115" r="15"/><circle class="cls-11" cx="71" cy="102" r="15"/><circle class="cls-12" cx="122" cy="130" r="15"/><circle class="cls-13" cx="79" cy="73" r="15"/><circle class="cls-14" cx="106" cy="64" r="15"/><circle class="cls-15" cx="129" cy="82" r="15"/><circle class="cls-16" cx="130" cy="106" r="15"/><circle class="cls-17" cx="100" cy="103" r="15"/><circle class="cls-18" cx="99" cy="149" r="15"/><circle class="cls-19" cx="73" cy="139" r="15"/></svg>