<svg id="Layer_1" data-name="Layer 1" xmlns="http://www.w3.org/2000/svg" xmlns:xlink="http://www.w3.org/1999/xlink" viewBox="0 0 198 198"><defs><style>.cls-1{fill:url(#radial-gradient);}.cls-2{fill:url(#radial-gradient-2);}.cls-3{fill:url(#radial-gradient-3);}.cls-4{fill:url(#radial-gradient-4);}.cls-5{fill:url(#radial-gradient-5);}.cls-6{fill:url(#radial-gradient-6);}.cls-7{fill:url(#radial-gradient-7);}.cls-8{fill:url(#radial-gradient-8);}.cls-9{fill:url(#radial-gradient-9);}.cls-10{fill:url(#radial-gradient-10);}.cls-11{fill:url(#radial-gradient-11);}.cls-12{fill:url(#radial-gradient-12);}.cls-13{fill:url(#radial-gradient-13);}.cls-14{fill:url(#radial-gradient-14);}.cls-15{fill:url(#radial-gradient-15);}.cls-16{fill:url(#radial-gradient-16);}.cls-17{fill:url(#radial-gradient-17);}.cls-18{fill:url(#radial-gradient-18);}.cls-19{fill:url(#radial-gradient-19);}.cls-20{fill:url(#radial-gradient-20);}.cls-21{fill:url(#radial-gradient-21);}</style><radialGradient id="radial-gradient" cx="67.68" cy="80.84" fx="0.7195884734150866" fy="48.822929207131764" r="74.22" gradientUnits="userSpaceOnUse"><stop offset="0.07" stop-color="gold"/><stop offset="1" stop-color="#daa520"/></radialGradient><radialGradient id="radial-gradient-2" cx="142.6" cy="78.5" r="12.9" gradientUnits="userSpaceOnUse"><stop offset="0.07" stop-color="#736357"/><stop offset="1" stop-color="#333"/></radialGradient><radialGradient id="radial-gradient-3" cx="51.6" cy="119.5" r="12.9" xlink:href="#radial-gradient-2"/><radialGradient id="radial-gradient-4" cx="104.6" cy="89.5" r="12.9" xlink:href="#radial-gradient-2"/><radialGradient id="radial-gradient-5" cx="104.6" cy="120.5" r="12.9" xlink:href="#radial-gradient-2"/><radialGradient id="radial-gradient-6" cx="123.6" cy="54.5" r="12.9" xlink:href="#radial-gradient-2"/><radialGradient id="radial-gradient-7" cx="53.6" cy="89.5" r="12.9" xlink:href="#radial-gradient-2"/><radialGradient id="radial-gradient-8" cx="91.6" cy="47.5" r="12.9" xlink:href="#radial-gradient-2"/><radialGradient id="radial-gradient-9" cx="62.6" cy="61.5" r="12.9" xlink:href="#radial-gradient-2"/><radialGradient id="radial-gradient-10" cx="140.6" cy="108.5" r="12.9" xlink:href="#radial-gradient-2"/><radialGradient id="radial-gradient-11" cx="66.6" cy="96.5" r="12.9" xlink:href="#radial-gradient-2"/><radialGradient id="radial-gradient-12" cx="130.6" cy="136.5" r="12.9" xlink:href="#radial-gradient-2"/><radialGradient id="radial-gradient-13" cx="74.6" cy="67.5" r="12.9" xlink:href="#radial-gradient-2"/><radialGradient id="radial-gradient-14" cx="99.6" cy="62.5" r="12.9" xlink:href="#radial-gradient-2"/><radialGradient id="radial-gradient-15" cx="126.6" cy="75.5" r="12.9" xlink:href="#radial-gradient-2"/><radialGradient id="radial-gradient-16" cx="100.36" cy="93.13" r="12.9" gradientTransform="translate(-5.76 2.37)" xlink:href="#radial-gradient-2"/><radialGradient id="radial-gradient-17" cx="108.36" cy="146.13" r="12.9" gradientTransform="translate(-5.76 2.37)" xlink:href="#radial-gradient-2"/><radialGradient id="radial-gradient-18" cx="81.36" cy="133.13" r="12.9" gradientTransform="translate(-5.76 2.37)" xlink:href="#radial-gradient-2"/><radialGradient id="radial-gradient-19" cx="88.36" cy="119.13" r="12.9" gradientTransform="translate(-5.76 2.37)" xlink:href="#radial-gradient-2"/><radialGradient id="radial-gradient-20" cx="130.36" cy="102.13" r="12.9" gradientTransform="translate(-5.76 2.37)" xlink:href="#radial-gradient-2"/><radialGradient id="radial-gradient-21" cx="119.36" cy="129.13" r="12.9" gradientTransform="translate(-5.76 2.37)" xlink:href="#radial-gradient-2"/></defs><title>20</title><circle class="cls-1" cx="99" cy="99" r="99"/><circle class="cls-2" cx="145" cy="80" r="15"/><circle class="cls-3" cx="54" cy="121" r="15"/><circle class="cls-4" cx="107" cy="91" r="15"/><circle class="cls-5" cx="107" cy="122" r="15"/><circle class="cls-6" cx="126" cy="56" r="15"/><circle class="cls-7" cx="56" cy="91" r="15"/><circle class="cls-8" cx="94" cy="49" r="15"/><circle class="cls-9" cx="65" cy="63" r="15"/><circle class="cls-10" cx="143" cy="110" r="15"/><circle class="cls-11" cx="69" cy="98" r="15"/><circle class="cls-12" cx="133" cy="138" r="15"/><circle class="cls-13" cx="77" cy="69" r="15"/><circle class="cls-14" cx="102" cy="64" r="15"/><circle class="cls-15" cx="129" cy="77" r="15"/><circle class="cls-16" cx="97" cy="97" r="15"/><circle class="cls-17" cx="105" cy="150" r="15"/><circle class="cls-18" cx="78" cy="137" r="15"/><circle class="cls-19" cx="85" cy="123" r="15"/><circle class="cls-20" cx="127" cy="106" r="15"/><circle class="cls-21" cx="116" cy="133" r="15"/></svg>