<svg id="Layer_1" data-name="Layer 1" xmlns="http://www.w3.org/2000/svg" xmlns:xlink="http://www.w3.org/1999/xlink" viewBox="0 0 198 198"><defs><style>.cls-1{fill:url(#radial-gradient);}.cls-2{fill:url(#radial-gradient-2);}.cls-3{fill:url(#radial-gradient-3);}.cls-4{fill:url(#radial-gradient-4);}.cls-5{fill:url(#radial-gradient-5);}.cls-6{fill:url(#radial-gradient-6);}.cls-7{fill:url(#radial-gradient-7);}.cls-8{fill:url(#radial-gradient-8);}.cls-9{fill:url(#radial-gradient-9);}.cls-10{fill:url(#radial-gradient-10);}.cls-11{fill:url(#radial-gradient-11);}.cls-12{fill:url(#radial-gradient-12);}.cls-13{fill:url(#radial-gradient-13);}.cls-14{fill:url(#radial-gradient-14);}.cls-15{fill:url(#radial-gradient-15);}.cls-16{fill:url(#radial-gradient-16);}.cls-17{fill:url(#radial-gradient-17);}.cls-18{fill:url(#radial-gradient-18);}.cls-19{fill:url(#radial-gradient-19);}.cls-20{fill:url(#radial-gradient-20);}.cls-21{fill:url(#radial-gradient-21);}.cls-22{fill:url(#radial-gradient-22);}.cls-23{fill:url(#radial-gradient-23);}.cls-24{fill:url(#radial-gradient-24);}</style><radialGradient id="radial-gradient" cx="67.68" cy="80.84" fx="0.7195884734150866" fy="48.822929207131764" r="74.22" gradientUnits="userSpaceOnUse"><stop offset="0.07" stop-color="gold"/><stop offset="1" stop-color="#daa520"/></radialGradient><radialGradient id="radial-gradient-2" cx="151.6" cy="84.5" r="12.9" gradientUnits="userSpaceOnUse"><stop offset="0.07" stop-color="#736357"/><stop offset="1" stop-color="#333"/></radialGradient><radialGradient id="radial-gradient-3" cx="54.6" cy="121.5" r="12.9" xlink:href="#radial-gradient-2"/><radialGradient id="radial-gradient-4" cx="102.6" cy="87.5" r="12.9" xlink:href="#radial-gradient-2"/><radialGradient id="radial-gradient-5" cx="100.6" cy="122.5" r="12.9" xlink:href="#radial-gradient-2"/><radialGradient id="radial-gradient-6" cx="128.6" cy="65.5" r="12.9" xlink:href="#radial-gradient-2"/><radialGradient id="radial-gradient-7" cx="46.6" cy="92.5" r="12.9" xlink:href="#radial-gradient-2"/><radialGradient id="radial-gradient-8" cx="54.6" cy="63.5" r="12.9" xlink:href="#radial-gradient-2"/><radialGradient id="radial-gradient-9" cx="81.6" cy="69.5" r="12.9" xlink:href="#radial-gradient-2"/><radialGradient id="radial-gradient-10" cx="146.6" cy="112.5" r="12.9" xlink:href="#radial-gradient-2"/><radialGradient id="radial-gradient-11" cx="63.6" cy="104.5" r="12.9" xlink:href="#radial-gradient-2"/><radialGradient id="radial-gradient-12" cx="127.6" cy="135.5" r="12.9" xlink:href="#radial-gradient-2"/><radialGradient id="radial-gradient-13" cx="72.6" cy="76.5" r="12.9" xlink:href="#radial-gradient-2"/><radialGradient id="radial-gradient-14" cx="102.6" cy="50.5" r="12.9" xlink:href="#radial-gradient-2"/><radialGradient id="radial-gradient-15" cx="74.6" cy="40.5" r="12.9" xlink:href="#radial-gradient-2"/><radialGradient id="radial-gradient-16" cx="124.6" cy="77.5" r="12.9" xlink:href="#radial-gradient-2"/><radialGradient id="radial-gradient-17" cx="98.6" cy="62.5" r="12.9" xlink:href="#radial-gradient-2"/><radialGradient id="radial-gradient-18" cx="100.36" cy="94.13" r="12.9" gradientTransform="translate(-5.76 2.37)" xlink:href="#radial-gradient-2"/><radialGradient id="radial-gradient-19" cx="108.36" cy="152.13" r="12.9" gradientTransform="translate(-5.76 2.37)" xlink:href="#radial-gradient-2"/><radialGradient id="radial-gradient-20" cx="80.36" cy="142.13" r="12.9" gradientTransform="translate(-5.76 2.37)" xlink:href="#radial-gradient-2"/><radialGradient id="radial-gradient-21" cx="89.36" cy="122.13" r="12.9" gradientTransform="translate(-5.76 2.37)" xlink:href="#radial-gradient-2"/><radialGradient id="radial-gradient-22" cx="116.36" cy="137.13" r="12.9" gradientTransform="translate(-5.76 2.37)" xlink:href="#radial-gradient-2"/><radialGradient id="radial-gradient-23" cx="144.36" cy="102.13" r="12.9" gradientTransform="translate(-5.76 2.37)" xlink:href="#radial-gradient-2"/><radialGradient id="radial-gradient-24" cx="117.36" cy="107.13" r="12.9" gradientTransform="translate(-5.76 2.37)" xlink:href="#radial-gradient-2"/></defs><title>23</title><circle class="cls-1" cx="99" cy="99" r="99"/><circle class="cls-2" cx="154" cy="86" r="15"/><circle class="cls-3" cx="57" cy="123" r="15"/><circle class="cls-4" cx="105" cy="89" r="15"/><circle class="cls-5" cx="103" cy="124" r="15"/><circle class="cls-6" cx="131" cy="67" r="15"/><circle class="cls-7" cx="49" cy="94" r="15"/><circle class="cls-8" cx="57" cy="65" r="15"/><circle class="cls-9" cx="84" cy="71" r="15"/><circle class="cls-10" cx="149" cy="114" r="15"/><circle class="cls-11" cx="66" cy="106" r="15"/><circle class="cls-12" cx="130" cy="137" r="15"/><circle class="cls-13" cx="75" cy="78" r="15"/><circle class="cls-14" cx="105" cy="52" r="15"/><circle class="cls-15" cx="77" cy="42" r="15"/><circle class="cls-16" cx="127" cy="79" r="15"/><circle class="cls-17" cx="101" cy="64" r="15"/><circle class="cls-18" cx="97" cy="98" r="15"/><circle class="cls-19" cx="105" cy="156" r="15"/><circle class="cls-20" cx="77" cy="146" r="15"/><circle class="cls-21" cx="86" cy="126" r="15"/><circle class="cls-22" cx="113" cy="141" r="15"/><circle class="cls-23" cx="141" cy="106" r="15"/><circle class="cls-24" cx="114" cy="111" r="15"/></svg>