<svg id="Layer_1" data-name="Layer 1" xmlns="http://www.w3.org/2000/svg" xmlns:xlink="http://www.w3.org/1999/xlink" viewBox="0 0 198 198"><defs><style>.cls-1{fill:url(#radial-gradient);}.cls-2{fill:url(#radial-gradient-2);}.cls-3{fill:url(#radial-gradient-3);}.cls-4{fill:url(#radial-gradient-4);}.cls-5{fill:url(#radial-gradient-5);}.cls-6{fill:url(#radial-gradient-6);}.cls-7{fill:url(#radial-gradient-7);}.cls-8{fill:url(#radial-gradient-8);}.cls-9{fill:url(#radial-gradient-9);}.cls-10{fill:url(#radial-gradient-10);}.cls-11{fill:url(#radial-gradient-11);}.cls-12{fill:url(#radial-gradient-12);}.cls-13{fill:url(#radial-gradient-13);}.cls-14{fill:url(#radial-gradient-14);}.cls-15{fill:url(#radial-gradient-15);}.cls-16{fill:url(#radial-gradient-16);}.cls-17{fill:url(#radial-gradient-17);}.cls-18{fill:url(#radial-gradient-18);}.cls-19{fill:url(#radial-gradient-19);}.cls-20{fill:url(#radial-gradient-20);}.cls-21{fill:url(#radial-gradient-21);}.cls-22{fill:url(#radial-gradient-22);}.cls-23{fill:url(#radial-gradient-23);}.cls-24{fill:url(#radial-gradient-24);}.cls-25{fill:url(#radial-gradient-25);}.cls-26{fill:url(#radial-gradient-26);}.cls-27{fill:url(#radial-gradient-27);}.cls-28{fill:url(#radial-gradient-28);}</style><radialGradient id="radial-gradient" cx="67.68" cy="80.84" fx="0.7195884734150866" fy="48.822929207131764" r="74.22" gradientUnits="userSpaceOnUse"><stop offset="0.07" stop-color="gold"/><stop offset="1" stop-color="#daa520"/></radialGradient><radialGradient id="radial-gradient-2" cx="148.6" cy="86.5" r="12.9" gradientUnits="userSpaceOnUse"><stop offset="0.07" stop-color="#736357"/><stop offset="1" stop-color="#333"/></radialGradient><radialGradient id="radial-gradient-3" cx="51.6" cy="123.5" r="12.9" xlink:href="#radial-gradient-2"/><radialGradient id="radial-gradient-4" cx="99.6" cy="89.5" r="12.9" xlink:href="#radial-gradient-2"/><radialGradient id="radial-gradient-5" cx="97.6" cy="124.5" r="12.9" xlink:href="#radial-gradient-2"/><radialGradient id="radial-gradient-6" cx="123.6" cy="69.5" r="12.9" xlink:href="#radial-gradient-2"/><radialGradient id="radial-gradient-7" cx="43.6" cy="94.5" r="12.9" xlink:href="#radial-gradient-2"/><radialGradient id="radial-gradient-8" cx="51.6" cy="65.5" r="12.9" xlink:href="#radial-gradient-2"/><radialGradient id="radial-gradient-9" cx="78.6" cy="71.5" r="12.9" xlink:href="#radial-gradient-2"/><radialGradient id="radial-gradient-10" cx="143.6" cy="114.5" r="12.9" xlink:href="#radial-gradient-2"/><radialGradient id="radial-gradient-11" cx="60.6" cy="106.5" r="12.9" xlink:href="#radial-gradient-2"/><radialGradient id="radial-gradient-12" cx="124.6" cy="137.5" r="12.9" xlink:href="#radial-gradient-2"/><radialGradient id="radial-gradient-13" cx="69.6" cy="78.5" r="12.9" xlink:href="#radial-gradient-2"/><radialGradient id="radial-gradient-14" cx="99.6" cy="52.5" r="12.9" xlink:href="#radial-gradient-2"/><radialGradient id="radial-gradient-15" cx="71.6" cy="42.5" r="12.9" xlink:href="#radial-gradient-2"/><radialGradient id="radial-gradient-16" cx="125.6" cy="39.5" r="12.9" xlink:href="#radial-gradient-2"/><radialGradient id="radial-gradient-17" cx="150.6" cy="56.5" r="12.9" xlink:href="#radial-gradient-2"/><radialGradient id="radial-gradient-18" cx="119.6" cy="82.5" r="12.9" xlink:href="#radial-gradient-2"/><radialGradient id="radial-gradient-19" cx="132.6" cy="55.5" r="12.9" xlink:href="#radial-gradient-2"/><radialGradient id="radial-gradient-20" cx="95.6" cy="64.5" r="12.9" xlink:href="#radial-gradient-2"/><radialGradient id="radial-gradient-21" cx="97.36" cy="96.13" r="12.9" gradientTransform="translate(-5.76 2.37)" xlink:href="#radial-gradient-2"/><radialGradient id="radial-gradient-22" cx="105.36" cy="154.13" r="12.9" gradientTransform="translate(-5.76 2.37)" xlink:href="#radial-gradient-2"/><radialGradient id="radial-gradient-23" cx="77.36" cy="144.13" r="12.9" gradientTransform="translate(-5.76 2.37)" xlink:href="#radial-gradient-2"/><radialGradient id="radial-gradient-24" cx="86.36" cy="124.13" r="12.9" gradientTransform="translate(-5.76 2.37)" xlink:href="#radial-gradient-2"/><radialGradient id="radial-gradient-25" cx="113.36" cy="139.13" r="12.9" gradientTransform="translate(-5.76 2.37)" xlink:href="#radial-gradient-2"/><radialGradient id="radial-gradient-26" cx="141.36" cy="104.13" r="12.9" gradientTransform="translate(-5.76 2.37)" xlink:href="#radial-gradient-2"/><radialGradient id="radial-gradient-27" cx="114.36" cy="109.13" r="12.9" gradientTransform="translate(-5.76 2.37)" xlink:href="#radial-gradient-2"/><radialGradient id="radial-gradient-28" cx="110.6" cy="90.5" r="12.9" xlink:href="#radial-gradient-2"/></defs><title>27</title><circle class="cls-1" cx="99" cy="99" r="99"/><circle class="cls-2" cx="151" cy="88" r="15"/><circle class="cls-3" cx="54" cy="125" r="15"/><circle class="cls-4" cx="102" cy="91" r="15"/><circle class="cls-5" cx="100" cy="126" r="15"/><circle class="cls-6" cx="126" cy="71" r="15"/><circle class="cls-7" cx="46" cy="96" r="15"/><circle class="cls-8" cx="54" cy="67" r="15"/><circle class="cls-9" cx="81" cy="73" r="15"/><circle class="cls-10" cx="146" cy="116" r="15"/><circle class="cls-11" cx="63" cy="108" r="15"/><circle class="cls-12" cx="127" cy="139" r="15"/><circle class="cls-13" cx="72" cy="80" r="15"/><circle class="cls-14" cx="102" cy="54" r="15"/><circle class="cls-15" cx="74" cy="44" r="15"/><circle class="cls-16" cx="128" cy="41" r="15"/><circle class="cls-17" cx="153" cy="58" r="15"/><circle class="cls-18" cx="122" cy="84" r="15"/><circle class="cls-19" cx="135" cy="57" r="15"/><circle class="cls-20" cx="98" cy="66" r="15"/><circle class="cls-21" cx="94" cy="100" r="15"/><circle class="cls-22" cx="102" cy="158" r="15"/><circle class="cls-23" cx="74" cy="148" r="15"/><circle class="cls-24" cx="83" cy="128" r="15"/><circle class="cls-25" cx="110" cy="143" r="15"/><circle class="cls-26" cx="138" cy="108" r="15"/><circle class="cls-27" cx="111" cy="113" r="15"/><circle class="cls-28" cx="113" cy="92" r="15"/></svg>